<?xml version="1.0" encoding="utf-8"?>
<!-- Generator: Adobe Illustrator 16.0.0, SVG Export Plug-In . SVG Version: 6.00 Build 0)  -->
<!DOCTYPE svg PUBLIC "-//W3C//DTD SVG 1.1//EN" "http://www.w3.org/Graphics/SVG/1.1/DTD/svg11.dtd">
<svg version="1.1" id="Layer_1" xmlns="http://www.w3.org/2000/svg" xmlns:xlink="http://www.w3.org/1999/xlink" x="0px" y="0px"
	 width="53.85px" height="30.72px" viewBox="0 0 53.85 30.72" enable-background="new 0 0 53.85 30.72" xml:space="preserve">
<path fill-rule="evenodd" clip-rule="evenodd" fill="#FFFFFF" d="M26.348,30.591h3.219c0,0,0.972-0.107,1.469-0.643
	c0.457-0.49,0.441-1.414,0.441-1.414s-0.063-4.318,1.941-4.953c1.977-0.627,4.513,4.174,7.203,6.02
	c2.033,1.396,3.577,1.09,3.577,1.09l7.192-0.1c0,0,3.762-0.232,1.977-3.189c-0.146-0.242-1.037-2.189-5.347-6.188
	c-4.509-4.186-3.905-3.508,1.528-10.747c3.307-4.408,4.63-7.1,4.215-8.252c-0.394-1.099-2.826-0.808-2.826-0.808l-8.097,0.05
	c0,0-0.6-0.081-1.046,0.184C41.36,1.902,41.082,2.51,41.082,2.51S39.8,5.921,38.091,8.823c-3.604,6.122-5.048,6.446-5.637,6.064
	c-1.37-0.886-1.028-3.558-1.028-5.458c0-5.932,0.9-8.406-1.752-9.046c-0.881-0.212-1.528-0.354-3.779-0.376
	c-2.889-0.029-5.333,0.009-6.719,0.687c-0.921,0.452-1.632,1.456-1.198,1.514c0.534,0.071,1.746,0.327,2.388,1.201
	c0.83,1.129,0.801,3.664,0.801,3.664s0.477,6.983-1.114,7.853c-1.091,0.594-2.588-0.62-5.802-6.174
	c-1.646-2.845-2.89-5.991-2.89-5.991s-0.24-0.587-0.668-0.902c-0.519-0.381-1.244-0.501-1.244-0.501L1.757,1.407
	c0,0-1.155,0.032-1.579,0.534c-0.377,0.447-0.03,1.371-0.03,1.371s6.024,14.093,12.844,21.195
	C19.246,31.019,26.348,30.591,26.348,30.591L26.348,30.591z"/>
</svg>
