<?xml version="1.0" encoding="utf-8"?>
<!-- Generator: Adobe Illustrator 16.0.0, SVG Export Plug-In . SVG Version: 6.00 Build 0)  -->
<!DOCTYPE svg PUBLIC "-//W3C//DTD SVG 1.1//EN" "http://www.w3.org/Graphics/SVG/1.1/DTD/svg11.dtd">
<svg version="1.1" id="Layer_1" xmlns="http://www.w3.org/2000/svg" xmlns:xlink="http://www.w3.org/1999/xlink" x="0px" y="0px"
	 width="35.34px" height="35.34px" viewBox="0 0 35.34 35.34" enable-background="new 0 0 35.34 35.34" xml:space="preserve">
<path fill="#FFFFFF" d="M5.174,30.164c3.194,3.191,7.61,5.17,12.494,5.17v0.008h0.001c1.631,0,3.222-0.229,4.745-0.65
	c0.294-0.082,0.587-0.172,0.876-0.27c0.318-0.107,0.602-0.209,0.85-0.307l0.002-0.004c0.982-0.381,1.467-1.492,1.084-2.471
	c-0.384-0.982-1.492-1.469-2.475-1.084h-0.002c-0.252,0.102-0.477,0.184-0.671,0.246c-0.224,0.076-0.452,0.146-0.681,0.209
	c-1.173,0.33-2.424,0.502-3.729,0.502h-0.001v0.008c-3.817,0-7.278-1.551-9.788-4.064c-2.51-2.508-4.063-5.969-4.063-9.786h0.007
	v-0.004H3.816c0-3.816,1.553-7.278,4.063-9.789c2.51-2.508,5.971-4.06,9.787-4.06v0.007h0.002V3.819
	c3.817,0,7.279,1.551,9.789,4.063c2.51,2.507,4.063,5.969,4.063,9.785h-0.008c0,0.67-0.054,1.739-0.21,2.893
	c-0.173,1.264-0.464,2.654-0.934,3.762c-1.01,2.381-2.673,1.707-2.673-0.348c0-4.189,0-8.307,0-12.493
	c0-1.059-0.856-1.915-1.913-1.915c-0.506,0-0.965,0.195-1.307,0.516c-1.85-1.727-4.338-2.78-7.076-2.78V7.295l0,0h-0.002v0.007
	c-2.868,0-5.462,1.159-7.334,3.031c-1.873,1.873-3.031,4.467-3.031,7.333H7.026v0.004h0.008c0,2.868,1.158,5.461,3.031,7.334
	c1.872,1.873,4.466,3.031,7.336,3.031v0.008l0,0v-0.008c2.514,0,4.814-0.889,6.604-2.365c0.349,1.637,1.369,2.754,2.552,3.396
	c0.283,0.158,0.572,0.281,0.861,0.379c0.236,0.082,0.48,0.141,0.725,0.186c0.059,0.016,0.117,0.027,0.177,0.035l0.06,0.01v-0.004
	l0.015,0.004c0.241,0.031,0.454,0.049,0.638,0.049c2.191,0,3.656-1.42,4.623-3.412c0.76-1.563,1.195-3.518,1.43-5.244
	c0.19-1.402,0.256-2.643,0.256-3.403h-0.008c-0.001-4.881-1.977-9.3-5.168-12.492c-3.194-3.196-7.612-5.169-12.496-5.169v-0.007
	h-0.002v0.007c-4.883,0-9.299,1.977-12.493,5.169c-3.193,3.192-5.168,7.61-5.168,12.492h-0.007v0.004h0.007
	C0.006,22.553,1.981,26.973,5.174,30.164z M22.032,22.299c-1.19,1.189-2.828,1.926-4.631,1.926v-0.008l0,0v0.008
	c-1.805,0-3.441-0.736-4.631-1.926c-1.189-1.188-1.926-2.824-1.926-4.627h0.008v-0.004h-0.008c0-1.801,0.736-3.438,1.926-4.627
	c1.189-1.192,2.826-1.925,4.629-1.929v0.007h0.002l0,0v-0.007c1.803,0,3.44,0.737,4.631,1.929
	C24.544,15.553,24.544,19.787,22.032,22.299z"/>
</svg>
