<?xml version="1.0" encoding="utf-8"?>
<!-- Generator: Adobe Illustrator 16.0.0, SVG Export Plug-In . SVG Version: 6.00 Build 0)  -->
<!DOCTYPE svg PUBLIC "-//W3C//DTD SVG 1.1//EN" "http://www.w3.org/Graphics/SVG/1.1/DTD/svg11.dtd">
<svg version="1.1" id="Layer_1" xmlns="http://www.w3.org/2000/svg" xmlns:xlink="http://www.w3.org/1999/xlink" x="0px" y="0px"
	 width="25.24px" height="43.57px" viewBox="0 0 25.24 43.57" enable-background="new 0 0 25.24 43.57" xml:space="preserve">
<g>
	<g>
		<path fill="#FFFFFF" d="M12.62,22.487c6.203,0,11.245-5.042,11.245-11.241C23.864,5.044,18.822,0,12.62,0
			C6.419,0,1.375,5.044,1.375,11.247C1.375,17.446,6.419,22.487,12.62,22.487z M12.62,6.591c2.568,0,4.657,2.088,4.657,4.656
			c0,2.565-2.089,4.653-4.657,4.653c-2.564,0-4.655-2.088-4.655-4.653C7.964,8.679,10.056,6.591,12.62,6.591z"/>
		<path fill="#FFFFFF" d="M17.169,31.66c2.289-0.521,4.497-1.428,6.529-2.705c1.539-0.969,2.004-3.004,1.033-4.543
			c-0.969-1.541-3.002-2.005-4.543-1.035c-4.605,2.896-10.535,2.895-15.139,0c-1.542-0.97-3.574-0.505-4.542,1.035
			c-0.97,1.541-0.507,3.574,1.032,4.543c2.032,1.277,4.24,2.184,6.529,2.705l-6.286,6.287c-1.285,1.285-1.285,3.371,0,4.658
			c0.645,0.643,1.487,0.963,2.329,0.963c0.843,0,1.688-0.32,2.332-0.963l6.174-6.178l6.181,6.178c1.285,1.285,3.371,1.285,4.656,0
			c1.288-1.287,1.288-3.375,0-4.658L17.169,31.66z"/>
	</g>
</g>
</svg>
